<?plantuml 1.2026.2?><svg xmlns="http://www.w3.org/2000/svg" xmlns:xlink="http://www.w3.org/1999/xlink" contentStyleType="text/css" data-diagram-type="CLASS" height="517px" preserveAspectRatio="none" style="width:3814px;height:517px;background:#FFFFFF;" version="1.1" viewBox="0 0 3814 517" width="3814px" zoomAndPan="magnify"><defs/><g><!--cluster Protocols--><g class="cluster" data-qualified-name="Protocols" data-source-line="7" id="ent0002"><path d="M2332.5,303.99 L2400.8682,303.99 A3.75,3.75 0 0 1 2403.3682,306.49 L2410.3682,326.4783 L3804.5,326.4783 A2.5,2.5 0 0 1 3807,328.9783 L3807,508.04 A2.5,2.5 0 0 1 3804.5,510.54 L2332.5,510.54 A2.5,2.5 0 0 1 2330,508.04 L2330,306.49 A2.5,2.5 0 0 1 2332.5,303.99" fill="none" style="stroke:#000000;stroke-width:1.5;"/><line style="stroke:#000000;stroke-width:1.5;" x1="2330" x2="2410.3682" y1="326.4783" y2="326.4783"/><text fill="#000000" font-family="sans-serif" font-size="14" font-weight="bold" lengthAdjust="spacing" textLength="67.3682" x="2334" y="319.5252">Protocols</text></g><!--cluster Services--><g class="cluster" data-qualified-name="Services" data-source-line="34" id="ent0007"><path d="M8.5,6 L68.4941,6 A3.75,3.75 0 0 1 70.9941,8.5 L77.9941,28.4883 L2303.5,28.4883 A2.5,2.5 0 0 1 2306,30.9883 L2306,466.82 A2.5,2.5 0 0 1 2303.5,469.32 L8.5,469.32 A2.5,2.5 0 0 1 6,466.82 L6,8.5 A2.5,2.5 0 0 1 8.5,6" fill="none" style="stroke:#000000;stroke-width:1.5;"/><line style="stroke:#000000;stroke-width:1.5;" x1="6" x2="77.9941" y1="28.4883" y2="28.4883"/><text fill="#000000" font-family="sans-serif" font-size="14" font-weight="bold" lengthAdjust="spacing" textLength="58.9941" x="10" y="21.5352">Services</text></g><!--class AudioRecording--><g class="entity" data-qualified-name="Protocols.AudioRecording" data-source-line="8" id="ent0003"><rect fill="#F1F1F1" height="106.0859" rx="2.5" ry="2.5" style="stroke:#181818;stroke-width:0.5;" width="246.1035" x="3249.95" y="363.72"/><ellipse cx="3314.6351" cy="384.0305" fill="#B4A7E5" rx="11" ry="11" style="stroke:#181818;stroke-width:1;"/><path d="M3311.0628,380.2957 L3311.0628,378.1375 L3318.4422,378.1375 L3318.4422,380.2957 L3315.9769,380.2957 L3315.9769,388.3723 L3318.4422,388.3723 L3318.4422,390.5305 L3311.0628,390.5305 L3311.0628,388.3723 L3313.5281,388.3723 L3313.5281,380.2957 Z " fill="#000000"/><text fill="#000000" font-family="sans-serif" font-size="12" font-style="italic" lengthAdjust="spacing" textLength="61.2539" x="3358.6248" y="380.3216">&#171;protocol&#187;</text><text fill="#000000" font-family="sans-serif" font-size="14" font-style="italic" lengthAdjust="spacing" textLength="108.2334" x="3335.1351" y="396.388">AudioRecording</text><line style="stroke:#181818;stroke-width:0.5;" x1="3250.95" x2="3495.0535" y1="404.3411" y2="404.3411"/><g data-visibility-modifier="PUBLIC_FIELD"><ellipse cx="3260.95" cy="418.0852" fill="none" rx="3" ry="3" style="stroke:#038048;stroke-width:1;"/></g><text fill="#000000" font-family="sans-serif" font-size="14" lengthAdjust="spacing" textLength="114.2148" x="3269.95" y="421.8762">audioLevel: Float</text><line style="stroke:#181818;stroke-width:0.5;" x1="3250.95" x2="3495.0535" y1="428.8294" y2="428.8294"/><g data-visibility-modifier="PUBLIC_METHOD"><ellipse cx="3260.95" cy="442.5735" fill="#84BE84" rx="3" ry="3" style="stroke:#038048;stroke-width:1;"/></g><text fill="#000000" font-family="sans-serif" font-size="14" lengthAdjust="spacing" textLength="201.6807" x="3269.95" y="446.3645">startRecording() async throws</text><g data-visibility-modifier="PUBLIC_METHOD"><ellipse cx="3260.95" cy="459.0618" fill="#84BE84" rx="3" ry="3" style="stroke:#038048;stroke-width:1;"/></g><text fill="#000000" font-family="sans-serif" font-size="14" lengthAdjust="spacing" textLength="220.1035" x="3269.95" y="462.8528">stopRecording() async -&gt; [Float]</text></g><!--class ContextDetecting--><g class="entity" data-qualified-name="Protocols.ContextDetecting" data-source-line="14" id="ent0004"><rect fill="#F1F1F1" height="73.1094" rx="2.5" ry="2.5" style="stroke:#181818;stroke-width:0.5;" width="260.7871" x="3530.61" y="380.21"/><ellipse cx="3597.2399" cy="400.5205" fill="#B4A7E5" rx="11" ry="11" style="stroke:#181818;stroke-width:1;"/><path d="M3593.6676,396.7857 L3593.6676,394.6275 L3601.047,394.6275 L3601.047,396.7857 L3598.5817,396.7857 L3598.5817,404.8623 L3601.047,404.8623 L3601.047,407.0205 L3593.6676,407.0205 L3593.6676,404.8623 L3596.1329,404.8623 L3596.1329,396.7857 Z " fill="#000000"/><text fill="#000000" font-family="sans-serif" font-size="12" font-style="italic" lengthAdjust="spacing" textLength="61.2539" x="3646.6266" y="396.8116">&#171;protocol&#187;</text><text fill="#000000" font-family="sans-serif" font-size="14" font-style="italic" lengthAdjust="spacing" textLength="119.0273" x="3617.7399" y="412.878">ContextDetecting</text><line style="stroke:#181818;stroke-width:0.5;" x1="3531.61" x2="3790.3971" y1="420.8311" y2="420.8311"/><line style="stroke:#181818;stroke-width:0.5;" x1="3531.61" x2="3790.3971" y1="428.8311" y2="428.8311"/><g data-visibility-modifier="PUBLIC_METHOD"><ellipse cx="3541.61" cy="442.5752" fill="#84BE84" rx="3" ry="3" style="stroke:#038048;stroke-width:1;"/></g><text fill="#000000" font-family="sans-serif" font-size="14" lengthAdjust="spacing" textLength="234.7871" x="3550.61" y="446.3662">detectContext() -&gt; FormatContext</text></g><!--class Formatting--><g class="entity" data-qualified-name="Protocols.Formatting" data-source-line="18" id="ent0005"><rect fill="#F1F1F1" height="155.5508" rx="2.5" ry="2.5" style="stroke:#181818;stroke-width:0.5;" width="409.3867" x="2346.31" y="338.99"/><ellipse cx="2509.4667" cy="359.3005" fill="#B4A7E5" rx="11" ry="11" style="stroke:#181818;stroke-width:1;"/><path d="M2505.8945,355.5657 L2505.8945,353.4075 L2513.2739,353.4075 L2513.2739,355.5657 L2510.8085,355.5657 L2510.8085,363.6423 L2513.2739,363.6423 L2513.2739,365.8005 L2505.8945,365.8005 L2505.8945,363.6423 L2508.3598,363.6423 L2508.3598,355.5657 Z " fill="#000000"/><text fill="#000000" font-family="sans-serif" font-size="12" font-style="italic" lengthAdjust="spacing" textLength="61.2539" x="2536.6264" y="355.5916">&#171;protocol&#187;</text><text fill="#000000" font-family="sans-serif" font-size="14" font-style="italic" lengthAdjust="spacing" textLength="74.5732" x="2529.9667" y="371.658">Formatting</text><line style="stroke:#181818;stroke-width:0.5;" x1="2347.31" x2="2754.6967" y1="379.6111" y2="379.6111"/><line style="stroke:#181818;stroke-width:0.5;" x1="2347.31" x2="2754.6967" y1="387.6111" y2="387.6111"/><g data-visibility-modifier="PUBLIC_METHOD"><ellipse cx="2357.31" cy="401.3552" fill="#84BE84" rx="3" ry="3" style="stroke:#038048;stroke-width:1;"/></g><text fill="#000000" font-family="sans-serif" font-size="14" lengthAdjust="spacing" textLength="383.3867" x="2366.31" y="405.1462">format(transcription:context:language:) -&gt; AsyncStream</text><g data-visibility-modifier="PUBLIC_METHOD"><ellipse cx="2357.31" cy="417.8435" fill="#84BE84" rx="3" ry="3" style="stroke:#038048;stroke-width:1;"/></g><text fill="#000000" font-family="sans-serif" font-size="14" lengthAdjust="spacing" textLength="106.3945" x="2366.31" y="421.6345">warmup() async</text><g data-visibility-modifier="PUBLIC_METHOD"><ellipse cx="2357.31" cy="434.3318" fill="#84BE84" rx="3" ry="3" style="stroke:#038048;stroke-width:1;"/></g><text fill="#000000" font-family="sans-serif" font-size="14" lengthAdjust="spacing" textLength="192.6846" x="2366.31" y="438.1228">healthCheck() async -&gt; Bool</text><g data-visibility-modifier="PUBLIC_METHOD"><ellipse cx="2357.31" cy="450.8201" fill="#84BE84" rx="3" ry="3" style="stroke:#038048;stroke-width:1;"/></g><text fill="#000000" font-family="sans-serif" font-size="14" lengthAdjust="spacing" textLength="188.7813" x="2366.31" y="454.6111">isReachable() async -&gt; Bool</text><g data-visibility-modifier="PUBLIC_METHOD"><ellipse cx="2357.31" cy="467.3084" fill="#84BE84" rx="3" ry="3" style="stroke:#038048;stroke-width:1;"/></g><text fill="#000000" font-family="sans-serif" font-size="14" lengthAdjust="spacing" textLength="341.4209" x="2366.31" y="471.0994">pullModel(name: String) -&gt; AsyncThrowingStream</text><g data-visibility-modifier="PUBLIC_METHOD"><ellipse cx="2357.31" cy="483.7966" fill="#84BE84" rx="3" ry="3" style="stroke:#038048;stroke-width:1;"/></g><text fill="#000000" font-family="sans-serif" font-size="14" lengthAdjust="spacing" textLength="211.2373" x="2366.31" y="487.5877">fetchModels() async -&gt; [String]</text></g><!--class Transcribing--><g class="entity" data-qualified-name="Protocols.Transcribing" data-source-line="27" id="ent0006"><rect fill="#F1F1F1" height="106.0859" rx="2.5" ry="2.5" style="stroke:#181818;stroke-width:0.5;" width="423.7012" x="2791.15" y="363.72"/><ellipse cx="2956.0704" cy="384.0305" fill="#B4A7E5" rx="11" ry="11" style="stroke:#181818;stroke-width:1;"/><path d="M2952.4981,380.2957 L2952.4981,378.1375 L2959.8775,378.1375 L2959.8775,380.2957 L2957.4122,380.2957 L2957.4122,388.3723 L2959.8775,388.3723 L2959.8775,390.5305 L2952.4981,390.5305 L2952.4981,388.3723 L2954.9635,388.3723 L2954.9635,380.2957 Z " fill="#000000"/><text fill="#000000" font-family="sans-serif" font-size="12" font-style="italic" lengthAdjust="spacing" textLength="61.2539" x="2988.6236" y="380.3216">&#171;protocol&#187;</text><text fill="#000000" font-family="sans-serif" font-size="14" font-style="italic" lengthAdjust="spacing" textLength="85.3604" x="2976.5704" y="396.388">Transcribing</text><line style="stroke:#181818;stroke-width:0.5;" x1="2792.15" x2="3213.8512" y1="404.3411" y2="404.3411"/><line style="stroke:#181818;stroke-width:0.5;" x1="2792.15" x2="3213.8512" y1="412.3411" y2="412.3411"/><g data-visibility-modifier="PUBLIC_METHOD"><ellipse cx="2802.15" cy="426.0852" fill="#84BE84" rx="3" ry="3" style="stroke:#038048;stroke-width:1;"/></g><text fill="#000000" font-family="sans-serif" font-size="14" lengthAdjust="spacing" textLength="286.5488" x="2811.15" y="429.8762">setup(model: WhisperModel) async throws</text><g data-visibility-modifier="PUBLIC_METHOD"><ellipse cx="2802.15" cy="442.5735" fill="#84BE84" rx="3" ry="3" style="stroke:#038048;stroke-width:1;"/></g><text fill="#000000" font-family="sans-serif" font-size="14" lengthAdjust="spacing" textLength="333.2588" x="2811.15" y="446.3645">switchModel(model: WhisperModel) async throws</text><g data-visibility-modifier="PUBLIC_METHOD"><ellipse cx="2802.15" cy="459.0618" fill="#84BE84" rx="3" ry="3" style="stroke:#038048;stroke-width:1;"/></g><text fill="#000000" font-family="sans-serif" font-size="14" lengthAdjust="spacing" textLength="397.7012" x="2811.15" y="462.8528">transcribe(audio:language:) async throws -&gt; Transcription</text></g><!--class WhisperKitRecorder--><g class="entity" data-qualified-name="Services.WhisperKitRecorder" data-source-line="35" id="ent0008"><rect fill="#F1F1F1" height="155.5508" rx="2.5" ry="2.5" style="stroke:#181818;stroke-width:0.5;" width="246.1035" x="925.95" y="82.22"/><ellipse cx="978.2005" cy="102.5305" fill="#ADD1B2" rx="11" ry="11" style="stroke:#181818;stroke-width:1;"/><path d="M980.6736,108.6736 Q980.0926,108.9724 979.4534,109.1219 Q978.8143,109.2713 978.1087,109.2713 Q975.6019,109.2713 974.282,107.6194 Q972.9622,105.9676 972.9622,102.8465 Q972.9622,99.7171 974.282,98.0652 Q975.6019,96.4134 978.1087,96.4134 Q978.8143,96.4134 979.4617,96.5628 Q980.1092,96.7122 980.6736,97.011 L980.6736,99.7337 Q980.0428,99.1526 979.4493,98.8828 Q978.8558,98.6131 978.2249,98.6131 Q976.8802,98.6131 976.1954,99.6797 Q975.5105,100.7464 975.5105,102.8465 Q975.5105,104.9383 976.1954,106.0049 Q976.8802,107.0716 978.2249,107.0716 Q978.8558,107.0716 979.4493,106.8018 Q980.0428,106.532 980.6736,105.951 Z " fill="#000000"/><text fill="#000000" font-family="sans-serif" font-size="12" font-style="italic" lengthAdjust="spacing" textLength="70.2715" x="1030.116" y="98.8216">&#171;final class&#187;</text><text fill="#000000" font-family="sans-serif" font-size="14" lengthAdjust="spacing" textLength="133.1025" x="998.7005" y="114.888">WhisperKitRecorder</text><line style="stroke:#181818;stroke-width:0.5;" x1="926.95" x2="1171.0535" y1="122.8411" y2="122.8411"/><g data-visibility-modifier="PRIVATE_FIELD"><rect fill="none" height="6" style="stroke:#C82930;stroke-width:1;" width="6" x="933.95" y="133.5852"/></g><text fill="#000000" font-family="sans-serif" font-size="14" lengthAdjust="spacing" textLength="181.0156" x="945.95" y="140.3762">processor: AudioProcessor</text><g data-visibility-modifier="PRIVATE_FIELD"><rect fill="none" height="6" style="stroke:#C82930;stroke-width:1;" width="6" x="933.95" y="150.0735"/></g><text fill="#000000" font-family="sans-serif" font-size="14" lengthAdjust="spacing" textLength="217.0273" x="945.95" y="156.8645">minimumDuration: TimeInterval</text><g data-visibility-modifier="PRIVATE_FIELD"><rect fill="none" height="6" style="stroke:#C82930;stroke-width:1;" width="6" x="933.95" y="166.5618"/></g><text fill="#000000" font-family="sans-serif" font-size="14" lengthAdjust="spacing" textLength="142.7959" x="945.95" y="173.3528">recordingStart: Date?</text><g data-visibility-modifier="PUBLIC_FIELD"><ellipse cx="936.95" cy="186.0501" fill="none" rx="3" ry="3" style="stroke:#038048;stroke-width:1;"/></g><text fill="#000000" font-family="sans-serif" font-size="14" lengthAdjust="spacing" textLength="114.2148" x="945.95" y="189.8411">audioLevel: Float</text><line style="stroke:#181818;stroke-width:0.5;" x1="926.95" x2="1171.0535" y1="196.7942" y2="196.7942"/><g data-visibility-modifier="PUBLIC_METHOD"><ellipse cx="936.95" cy="210.5384" fill="#84BE84" rx="3" ry="3" style="stroke:#038048;stroke-width:1;"/></g><text fill="#000000" font-family="sans-serif" font-size="14" lengthAdjust="spacing" textLength="201.6807" x="945.95" y="214.3294">startRecording() async throws</text><g data-visibility-modifier="PUBLIC_METHOD"><ellipse cx="936.95" cy="227.0266" fill="#84BE84" rx="3" ry="3" style="stroke:#038048;stroke-width:1;"/></g><text fill="#000000" font-family="sans-serif" font-size="14" lengthAdjust="spacing" textLength="220.1035" x="945.95" y="230.8177">stopRecording() async -&gt; [Float]</text></g><!--class ContextDetector--><g class="entity" data-qualified-name="Services.ContextDetector" data-source-line="44" id="ent0009"><rect fill="#F1F1F1" height="155.5508" rx="2.5" ry="2.5" style="stroke:#181818;stroke-width:0.5;" width="318.3799" x="1206.81" y="82.22"/><ellipse cx="1305.8046" cy="102.5305" fill="#ADD1B2" rx="11" ry="11" style="stroke:#181818;stroke-width:1;"/><path d="M1308.2778,108.6736 Q1307.6967,108.9724 1307.0576,109.1219 Q1306.4184,109.2713 1305.7128,109.2713 Q1303.206,109.2713 1301.8862,107.6194 Q1300.5663,105.9676 1300.5663,102.8465 Q1300.5663,99.7171 1301.8862,98.0652 Q1303.206,96.4134 1305.7128,96.4134 Q1306.4184,96.4134 1307.0659,96.5628 Q1307.7133,96.7122 1308.2778,97.011 L1308.2778,99.7337 Q1307.6469,99.1526 1307.0534,98.8828 Q1306.4599,98.6131 1305.829,98.6131 Q1304.4843,98.6131 1303.7995,99.6797 Q1303.1147,100.7464 1303.1147,102.8465 Q1303.1147,104.9383 1303.7995,106.0049 Q1304.4843,107.0716 1305.829,107.0716 Q1306.4599,107.0716 1307.0534,106.8018 Q1307.6469,106.532 1308.2778,105.951 Z " fill="#000000"/><text fill="#000000" font-family="sans-serif" font-size="12" font-style="italic" lengthAdjust="spacing" textLength="46.1719" x="1359.164" y="98.8216">&#171;struct&#187;</text><text fill="#000000" font-family="sans-serif" font-size="14" lengthAdjust="spacing" textLength="111.8906" x="1326.3046" y="114.888">ContextDetector</text><line style="stroke:#181818;stroke-width:0.5;" x1="1207.81" x2="1524.1899" y1="122.8411" y2="122.8411"/><g data-visibility-modifier="PRIVATE_FIELD"><rect fill="none" height="6" style="stroke:#C82930;stroke-width:1;" width="6" x="1214.81" y="133.5852"/></g><text fill="#000000" font-family="sans-serif" font-size="14" lengthAdjust="spacing" text-decoration="underline" textLength="194.4277" x="1226.81" y="140.3762">emailBundleIds: Set&lt;String&gt;</text><g data-visibility-modifier="PRIVATE_FIELD"><rect fill="none" height="6" style="stroke:#C82930;stroke-width:1;" width="6" x="1214.81" y="150.0735"/></g><text fill="#000000" font-family="sans-serif" font-size="14" lengthAdjust="spacing" text-decoration="underline" textLength="212.3242" x="1226.81" y="156.8645">browserBundleIds: Set&lt;String&gt;</text><g data-visibility-modifier="PRIVATE_FIELD"><rect fill="none" height="6" style="stroke:#C82930;stroke-width:1;" width="6" x="1214.81" y="166.5618"/></g><text fill="#000000" font-family="sans-serif" font-size="14" lengthAdjust="spacing" text-decoration="underline" textLength="292.3799" x="1226.81" y="173.3528">emailAddressPattern: NSRegularExpression</text><g data-visibility-modifier="PRIVATE_FIELD"><rect fill="none" height="6" style="stroke:#C82930;stroke-width:1;" width="6" x="1214.81" y="183.0501"/></g><text fill="#000000" font-family="sans-serif" font-size="14" lengthAdjust="spacing" text-decoration="underline" textLength="249.2656" x="1226.81" y="189.8411">emailWindowTitleSubstrings: [String]</text><line style="stroke:#181818;stroke-width:0.5;" x1="1207.81" x2="1524.1899" y1="196.7942" y2="196.7942"/><g data-visibility-modifier="PUBLIC_METHOD"><ellipse cx="1217.81" cy="210.5384" fill="#84BE84" rx="3" ry="3" style="stroke:#038048;stroke-width:1;"/></g><text fill="#000000" font-family="sans-serif" font-size="14" lengthAdjust="spacing" textLength="234.7871" x="1226.81" y="214.3294">detectContext() -&gt; FormatContext</text><g data-visibility-modifier="PRIVATE_METHOD"><rect fill="#F24D5C" height="6" style="stroke:#C82930;stroke-width:1;" width="6" x="1214.81" y="224.0266"/></g><text fill="#000000" font-family="sans-serif" font-size="14" lengthAdjust="spacing" textLength="237.3506" x="1226.81" y="230.8177">windowTitles(for: pid_t) -&gt; [String]</text></g><!--class OllamaFormatter--><g class="entity" data-qualified-name="Services.OllamaFormatter" data-source-line="53" id="ent0010"><rect fill="#F1F1F1" height="237.9922" rx="2.5" ry="2.5" style="stroke:#181818;stroke-width:0.5;" width="409.3867" x="22.31" y="41"/><ellipse cx="165.6835" cy="61.3105" fill="#ADD1B2" rx="11" ry="11" style="stroke:#181818;stroke-width:1;"/><path d="M168.1567,67.4536 Q167.5756,67.7524 166.9365,67.9019 Q166.2973,68.0513 165.5917,68.0513 Q163.0849,68.0513 161.7651,66.3994 Q160.4453,64.7476 160.4453,61.6265 Q160.4453,58.4971 161.7651,56.8452 Q163.0849,55.1934 165.5917,55.1934 Q166.2973,55.1934 166.9448,55.3428 Q167.5922,55.4922 168.1567,55.791 L168.1567,58.5137 Q167.5258,57.9326 166.9323,57.6628 Q166.3388,57.3931 165.7079,57.3931 Q164.3632,57.3931 163.6784,58.4597 Q162.9936,59.5264 162.9936,61.6265 Q162.9936,63.7183 163.6784,64.7849 Q164.3632,65.8516 165.7079,65.8516 Q166.3388,65.8516 166.9323,65.5818 Q167.5258,65.312 168.1567,64.731 Z " fill="#000000"/><text fill="#000000" font-family="sans-serif" font-size="12" font-style="italic" lengthAdjust="spacing" textLength="46.1719" x="220.1674" y="57.6016">&#171;struct&#187;</text><text fill="#000000" font-family="sans-serif" font-size="14" lengthAdjust="spacing" textLength="114.1396" x="186.1835" y="73.668">OllamaFormatter</text><line style="stroke:#181818;stroke-width:0.5;" x1="23.31" x2="430.6967" y1="81.6211" y2="81.6211"/><g data-visibility-modifier="PRIVATE_FIELD"><rect fill="none" height="6" style="stroke:#C82930;stroke-width:1;" width="6" x="30.31" y="92.3652"/></g><text fill="#000000" font-family="sans-serif" font-size="14" lengthAdjust="spacing" textLength="92.374" x="42.31" y="99.1562">baseURL: URL</text><g data-visibility-modifier="PRIVATE_FIELD"><rect fill="none" height="6" style="stroke:#C82930;stroke-width:1;" width="6" x="30.31" y="108.8535"/></g><text fill="#000000" font-family="sans-serif" font-size="14" lengthAdjust="spacing" textLength="136.3701" x="42.31" y="115.6445">session: URLSession</text><g data-visibility-modifier="PRIVATE_FIELD"><rect fill="none" height="6" style="stroke:#C82930;stroke-width:1;" width="6" x="30.31" y="125.3418"/></g><text fill="#000000" font-family="sans-serif" font-size="14" lengthAdjust="spacing" textLength="91.1572" x="42.31" y="132.1328">model: String</text><g data-visibility-modifier="PUBLIC_FIELD"><ellipse cx="33.31" cy="144.8301" fill="none" rx="3" ry="3" style="stroke:#038048;stroke-width:1;"/></g><text fill="#000000" font-family="sans-serif" font-size="14" lengthAdjust="spacing" text-decoration="underline" textLength="137.6074" x="42.31" y="148.6211">defaultModel: String</text><line style="stroke:#181818;stroke-width:0.5;" x1="23.31" x2="430.6967" y1="155.5742" y2="155.5742"/><g data-visibility-modifier="PUBLIC_METHOD"><ellipse cx="33.31" cy="169.3184" fill="#84BE84" rx="3" ry="3" style="stroke:#038048;stroke-width:1;"/></g><text fill="#000000" font-family="sans-serif" font-size="14" lengthAdjust="spacing" textLength="383.3867" x="42.31" y="173.1094">format(transcription:context:language:) -&gt; AsyncStream</text><g data-visibility-modifier="PUBLIC_METHOD"><ellipse cx="33.31" cy="185.8066" fill="#84BE84" rx="3" ry="3" style="stroke:#038048;stroke-width:1;"/></g><text fill="#000000" font-family="sans-serif" font-size="14" lengthAdjust="spacing" textLength="106.3945" x="42.31" y="189.5977">warmup() async</text><g data-visibility-modifier="PUBLIC_METHOD"><ellipse cx="33.31" cy="202.2949" fill="#84BE84" rx="3" ry="3" style="stroke:#038048;stroke-width:1;"/></g><text fill="#000000" font-family="sans-serif" font-size="14" lengthAdjust="spacing" textLength="192.6846" x="42.31" y="206.0859">healthCheck() async -&gt; Bool</text><g data-visibility-modifier="PUBLIC_METHOD"><ellipse cx="33.31" cy="218.7832" fill="#84BE84" rx="3" ry="3" style="stroke:#038048;stroke-width:1;"/></g><text fill="#000000" font-family="sans-serif" font-size="14" lengthAdjust="spacing" textLength="188.7813" x="42.31" y="222.5742">isReachable() async -&gt; Bool</text><g data-visibility-modifier="PUBLIC_METHOD"><ellipse cx="33.31" cy="235.2715" fill="#84BE84" rx="3" ry="3" style="stroke:#038048;stroke-width:1;"/></g><text fill="#000000" font-family="sans-serif" font-size="14" lengthAdjust="spacing" textLength="341.4209" x="42.31" y="239.0625">pullModel(name: String) -&gt; AsyncThrowingStream</text><g data-visibility-modifier="PUBLIC_METHOD"><ellipse cx="33.31" cy="251.7598" fill="#84BE84" rx="3" ry="3" style="stroke:#038048;stroke-width:1;"/></g><text fill="#000000" font-family="sans-serif" font-size="14" lengthAdjust="spacing" textLength="211.2373" x="42.31" y="255.5508">fetchModels() async -&gt; [String]</text><g data-visibility-modifier="PRIVATE_METHOD"><rect fill="#F24D5C" height="6" style="stroke:#C82930;stroke-width:1;" width="6" x="30.31" y="265.248"/></g><text fill="#000000" font-family="sans-serif" font-size="14" lengthAdjust="spacing" textLength="219.5566" x="42.31" y="272.0391">buildRequest(...) -&gt; URLRequest</text></g><!--class WhisperKitTranscriber--><g class="entity" data-qualified-name="Services.WhisperKitTranscriber" data-source-line="67" id="ent0011"><rect fill="#F1F1F1" height="139.0625" rx="2.5" ry="2.5" style="stroke:#181818;stroke-width:0.5;" width="423.7012" x="467.15" y="90.46"/><ellipse cx="599.733" cy="110.7705" fill="#ADD1B2" rx="11" ry="11" style="stroke:#181818;stroke-width:1;"/><path d="M602.2062,116.9136 Q601.6251,117.2124 600.9859,117.3619 Q600.3468,117.5113 599.6412,117.5113 Q597.1344,117.5113 595.8146,115.8594 Q594.4947,114.2076 594.4947,111.0865 Q594.4947,107.9571 595.8146,106.3052 Q597.1344,104.6534 599.6412,104.6534 Q600.3468,104.6534 600.9942,104.8028 Q601.6417,104.9522 602.2062,105.251 L602.2062,107.9737 Q601.5753,107.3926 600.9818,107.1228 Q600.3883,106.8531 599.7574,106.8531 Q598.4127,106.8531 597.7279,107.9197 Q597.0431,108.9864 597.0431,111.0865 Q597.0431,113.1783 597.7279,114.2449 Q598.4127,115.3116 599.7574,115.3116 Q600.3883,115.3116 600.9818,115.0418 Q601.5753,114.772 602.2062,114.191 Z " fill="#000000"/><text fill="#000000" font-family="sans-serif" font-size="12" font-style="italic" lengthAdjust="spacing" textLength="70.2715" x="660.1148" y="107.0616">&#171;final class&#187;</text><text fill="#000000" font-family="sans-serif" font-size="14" lengthAdjust="spacing" textLength="150.0352" x="620.233" y="123.128">WhisperKitTranscriber</text><line style="stroke:#181818;stroke-width:0.5;" x1="468.15" x2="889.8512" y1="131.0811" y2="131.0811"/><g data-visibility-modifier="PRIVATE_FIELD"><rect fill="none" height="6" style="stroke:#C82930;stroke-width:1;" width="6" x="475.15" y="141.8252"/></g><text fill="#000000" font-family="sans-serif" font-size="14" lengthAdjust="spacing" textLength="158.7988" x="487.15" y="148.6162">whisperKit: WhisperKit?</text><g data-visibility-modifier="PRIVATE_FIELD"><rect fill="none" height="6" style="stroke:#C82930;stroke-width:1;" width="6" x="475.15" y="158.3135"/></g><text fill="#000000" font-family="sans-serif" font-size="14" lengthAdjust="spacing" text-decoration="underline" textLength="131.6738" x="487.15" y="165.1045">downloadBase: URL</text><line style="stroke:#181818;stroke-width:0.5;" x1="468.15" x2="889.8512" y1="172.0577" y2="172.0577"/><g data-visibility-modifier="PUBLIC_METHOD"><ellipse cx="478.15" cy="185.8018" fill="#84BE84" rx="3" ry="3" style="stroke:#038048;stroke-width:1;"/></g><text fill="#000000" font-family="sans-serif" font-size="14" lengthAdjust="spacing" textLength="286.5488" x="487.15" y="189.5928">setup(model: WhisperModel) async throws</text><g data-visibility-modifier="PUBLIC_METHOD"><ellipse cx="478.15" cy="202.2901" fill="#84BE84" rx="3" ry="3" style="stroke:#038048;stroke-width:1;"/></g><text fill="#000000" font-family="sans-serif" font-size="14" lengthAdjust="spacing" textLength="333.2588" x="487.15" y="206.0811">switchModel(model: WhisperModel) async throws</text><g data-visibility-modifier="PUBLIC_METHOD"><ellipse cx="478.15" cy="218.7784" fill="#84BE84" rx="3" ry="3" style="stroke:#038048;stroke-width:1;"/></g><text fill="#000000" font-family="sans-serif" font-size="14" lengthAdjust="spacing" textLength="397.7012" x="487.15" y="222.5694">transcribe(audio:language:) async throws -&gt; Transcription</text></g><!--class ClipboardManager--><g class="entity" data-qualified-name="Services.ClipboardManager" data-source-line="75" id="ent0012"><rect fill="#F1F1F1" height="172.0391" rx="2.5" ry="2.5" style="stroke:#181818;stroke-width:0.5;" width="262.8789" x="1560.56" y="73.97"/><ellipse cx="1625.3784" cy="94.2805" fill="#ADD1B2" rx="11" ry="11" style="stroke:#181818;stroke-width:1;"/><path d="M1627.8515,100.4236 Q1627.2704,100.7224 1626.6313,100.8719 Q1625.9921,101.0213 1625.2866,101.0213 Q1622.7797,101.0213 1621.4599,99.3694 Q1620.1401,97.7176 1620.1401,94.5965 Q1620.1401,91.4671 1621.4599,89.8152 Q1622.7797,88.1634 1625.2866,88.1634 Q1625.9921,88.1634 1626.6396,88.3128 Q1627.2871,88.4622 1627.8515,88.761 L1627.8515,91.4837 Q1627.2206,90.9026 1626.6271,90.6328 Q1626.0336,90.3631 1625.4028,90.3631 Q1624.058,90.3631 1623.3732,91.4297 Q1622.6884,92.4964 1622.6884,94.5965 Q1622.6884,96.6883 1623.3732,97.7549 Q1624.058,98.8216 1625.4028,98.8216 Q1626.0336,98.8216 1626.6271,98.5518 Q1627.2206,98.282 1627.8515,97.701 Z " fill="#000000"/><text fill="#000000" font-family="sans-serif" font-size="12" font-style="italic" lengthAdjust="spacing" textLength="70.2715" x="1673.1137" y="90.5716">&#171;final class&#187;</text><text fill="#000000" font-family="sans-serif" font-size="14" lengthAdjust="spacing" textLength="124.7422" x="1645.8784" y="106.638">ClipboardManager</text><line style="stroke:#181818;stroke-width:0.5;" x1="1561.56" x2="1822.4389" y1="114.5911" y2="114.5911"/><g data-visibility-modifier="PRIVATE_FIELD"><rect fill="none" height="6" style="stroke:#C82930;stroke-width:1;" width="6" x="1568.56" y="125.3352"/></g><text fill="#000000" font-family="sans-serif" font-size="14" lengthAdjust="spacing" textLength="178.4658" x="1580.56" y="132.1262">pasteboard: NSPasteboard</text><g data-visibility-modifier="PRIVATE_FIELD"><rect fill="none" height="6" style="stroke:#C82930;stroke-width:1;" width="6" x="1568.56" y="141.8235"/></g><text fill="#000000" font-family="sans-serif" font-size="14" lengthAdjust="spacing" textLength="131.9678" x="1580.56" y="148.6145">maxHistorySize: Int</text><g data-visibility-modifier="PRIVATE_FIELD"><rect fill="none" height="6" style="stroke:#C82930;stroke-width:1;" width="6" x="1568.56" y="158.3118"/></g><text fill="#000000" font-family="sans-serif" font-size="14" lengthAdjust="spacing" textLength="142.9326" x="1580.56" y="165.1028">previousItem: String?</text><g data-visibility-modifier="PUBLIC_FIELD"><ellipse cx="1571.56" cy="177.8001" fill="none" rx="3" ry="3" style="stroke:#038048;stroke-width:1;"/></g><text fill="#000000" font-family="sans-serif" font-size="14" lengthAdjust="spacing" textLength="104.6855" x="1580.56" y="181.5911">history: [String]</text><line style="stroke:#181818;stroke-width:0.5;" x1="1561.56" x2="1822.4389" y1="188.5442" y2="188.5442"/><g data-visibility-modifier="PUBLIC_METHOD"><ellipse cx="1571.56" cy="202.2884" fill="#84BE84" rx="3" ry="3" style="stroke:#038048;stroke-width:1;"/></g><text fill="#000000" font-family="sans-serif" font-size="14" lengthAdjust="spacing" textLength="116.6895" x="1580.56" y="206.0794">copy(text: String)</text><g data-visibility-modifier="PUBLIC_METHOD"><ellipse cx="1571.56" cy="218.7766" fill="#84BE84" rx="3" ry="3" style="stroke:#038048;stroke-width:1;"/></g><text fill="#000000" font-family="sans-serif" font-size="14" lengthAdjust="spacing" textLength="236.8789" x="1580.56" y="222.5677">copyAndPaste(text: String) -&gt; Bool</text><g data-visibility-modifier="PUBLIC_METHOD"><ellipse cx="1571.56" cy="235.2649" fill="#84BE84" rx="3" ry="3" style="stroke:#038048;stroke-width:1;"/></g><text fill="#000000" font-family="sans-serif" font-size="14" lengthAdjust="spacing" textLength="43.8936" x="1580.56" y="239.0559">undo()</text></g><!--class HotkeyManager--><g class="entity" data-qualified-name="Services.HotkeyManager" data-source-line="85" id="ent0013"><rect fill="#F1F1F1" height="212.8828" rx="2.5" ry="2.5" style="stroke:#181818;stroke-width:0.5;" width="431.043" x="1858.48" y="53.55"/><ellipse cx="2016.8071" cy="69.55" fill="#ADD1B2" rx="11" ry="11" style="stroke:#181818;stroke-width:1;"/><path d="M2019.2803,75.6931 Q2018.6992,75.9919 2018.0601,76.1413 Q2017.4209,76.2907 2016.7154,76.2907 Q2014.2085,76.2907 2012.8887,74.6389 Q2011.5689,72.987 2011.5689,69.8659 Q2011.5689,66.7365 2012.8887,65.0847 Q2014.2085,63.4328 2016.7154,63.4328 Q2017.4209,63.4328 2018.0684,63.5822 Q2018.7158,63.7316 2019.2803,64.0305 L2019.2803,66.7531 Q2018.6494,66.1721 2018.0559,65.9023 Q2017.4624,65.6325 2016.8316,65.6325 Q2015.4868,65.6325 2014.802,66.6992 Q2014.1172,67.7658 2014.1172,69.8659 Q2014.1172,71.9577 2014.802,73.0244 Q2015.4868,74.091 2016.8316,74.091 Q2017.4624,74.091 2018.0559,73.8212 Q2018.6494,73.5515 2019.2803,72.9704 Z " fill="#000000"/><text fill="#000000" font-family="sans-serif" font-size="14" lengthAdjust="spacing" textLength="105.8887" x="2037.3071" y="74.841">HotkeyManager</text><line style="stroke:#181818;stroke-width:0.5;" x1="1859.48" x2="2288.523" y1="85.55" y2="85.55"/><g data-visibility-modifier="PRIVATE_FIELD"><rect fill="none" height="6" style="stroke:#C82930;stroke-width:1;" width="6" x="1866.48" y="96.2941"/></g><text fill="#000000" font-family="sans-serif" font-size="14" lengthAdjust="spacing" textLength="194.0859" x="1878.48" y="103.0852">hotkeyChoice: HotkeyChoice</text><line style="stroke:#181818;stroke-width:0.5;" x1="1859.48" x2="2288.523" y1="110.0383" y2="110.0383"/><g data-visibility-modifier="PUBLIC_METHOD"><ellipse cx="1869.48" cy="123.7824" fill="#84BE84" rx="3" ry="3" style="stroke:#038048;stroke-width:1;"/></g><text fill="#000000" font-family="sans-serif" font-size="14" lengthAdjust="spacing" textLength="187.4004" x="1878.48" y="127.5734">onRecordStart: (() -&gt; Void)?</text><g data-visibility-modifier="PUBLIC_METHOD"><ellipse cx="1869.48" cy="140.2707" fill="#84BE84" rx="3" ry="3" style="stroke:#038048;stroke-width:1;"/></g><text fill="#000000" font-family="sans-serif" font-size="14" lengthAdjust="spacing" textLength="186.1152" x="1878.48" y="144.0617">onRecordStop: (() -&gt; Void)?</text><g data-visibility-modifier="PUBLIC_METHOD"><ellipse cx="1869.48" cy="156.759" fill="#84BE84" rx="3" ry="3" style="stroke:#038048;stroke-width:1;"/></g><text fill="#000000" font-family="sans-serif" font-size="14" lengthAdjust="spacing" textLength="160.0771" x="1878.48" y="160.55">onDiscard: (() -&gt; Void)?</text><g data-visibility-modifier="PUBLIC_METHOD"><ellipse cx="1869.48" cy="173.2473" fill="#84BE84" rx="3" ry="3" style="stroke:#038048;stroke-width:1;"/></g><text fill="#000000" font-family="sans-serif" font-size="14" lengthAdjust="spacing" textLength="97.5625" x="1878.48" y="177.0383">start() -&gt; Bool</text><g data-visibility-modifier="PUBLIC_METHOD"><ellipse cx="1869.48" cy="189.7355" fill="#84BE84" rx="3" ry="3" style="stroke:#038048;stroke-width:1;"/></g><text fill="#000000" font-family="sans-serif" font-size="14" lengthAdjust="spacing" textLength="38.8896" x="1878.48" y="193.5266">stop()</text><g data-visibility-modifier="PACKAGE_PRIVATE_METHOD"><polygon fill="#4177AF" points="1869.48,202.2238,1865.48,208.2238,1873.48,208.2238" style="stroke:#1963A0;stroke-width:1;"/></g><text fill="#000000" font-family="sans-serif" font-size="14" lengthAdjust="spacing" textLength="359.7891" x="1878.48" y="210.0148">handleEvent(type:event:) -&gt; Unmanaged&lt;CGEvent&gt;?</text><g data-visibility-modifier="PRIVATE_METHOD"><rect fill="#F24D5C" height="6" style="stroke:#C82930;stroke-width:1;" width="6" x="1866.48" y="219.7121"/></g><text fill="#000000" font-family="sans-serif" font-size="14" lengthAdjust="spacing" textLength="339.4248" x="1878.48" y="226.5031">handleFn(type:event:) -&gt; Unmanaged&lt;CGEvent&gt;?</text><g data-visibility-modifier="PRIVATE_METHOD"><rect fill="#F24D5C" height="6" style="stroke:#C82930;stroke-width:1;" width="6" x="1866.48" y="236.2004"/></g><text fill="#000000" font-family="sans-serif" font-size="14" lengthAdjust="spacing" textLength="405.043" x="1878.48" y="242.9914">handleRightOption(type:event:) -&gt; Unmanaged&lt;CGEvent&gt;?</text><g data-visibility-modifier="PRIVATE_METHOD"><rect fill="#F24D5C" height="6" style="stroke:#C82930;stroke-width:1;" width="6" x="1866.48" y="252.6887"/></g><text fill="#000000" font-family="sans-serif" font-size="14" lengthAdjust="spacing" textLength="401.3174" x="1878.48" y="259.4797">handleSectionSign(type:event:) -&gt; Unmanaged&lt;CGEvent&gt;?</text></g><!--class OllamaError--><g class="entity" data-qualified-name="Services.OllamaError" data-source-line="98" id="ent0014"><rect fill="#F1F1F1" height="73.1094" rx="2.5" ry="2.5" style="stroke:#181818;stroke-width:0.5;" width="192.0723" x="130.96" y="380.21"/><ellipse cx="182.3081" cy="400.5205" fill="#EB937F" rx="11" ry="11" style="stroke:#181818;stroke-width:1;"/><path d="M185.9224,407.0205 L178.2027,407.0205 L178.2027,394.6275 L185.9224,394.6275 L185.9224,396.7857 L180.6514,396.7857 L180.6514,399.4585 L185.4244,399.4585 L185.4244,401.6167 L180.6514,401.6167 L180.6514,404.8623 L185.9224,404.8623 Z " fill="#000000"/><text fill="#000000" font-family="sans-serif" font-size="12" font-style="italic" lengthAdjust="spacing" textLength="45.3574" x="220.5674" y="396.8116">&#171;enum&#187;</text><text fill="#000000" font-family="sans-serif" font-size="14" lengthAdjust="spacing" textLength="80.876" x="202.8081" y="412.878">OllamaError</text><line style="stroke:#181818;stroke-width:0.5;" x1="131.96" x2="322.0323" y1="420.8311" y2="420.8311"/><g data-visibility-modifier="PUBLIC_FIELD"><ellipse cx="141.96" cy="434.5752" fill="none" rx="3" ry="3" style="stroke:#038048;stroke-width:1;"/></g><text fill="#000000" font-family="sans-serif" font-size="14" lengthAdjust="spacing" textLength="166.0723" x="150.96" y="438.3662">errorDescription: String?</text><line style="stroke:#181818;stroke-width:0.5;" x1="131.96" x2="322.0323" y1="445.3194" y2="445.3194"/></g><!--class TranscriberError--><g class="entity" data-qualified-name="Services.TranscriberError" data-source-line="102" id="ent0015"><rect fill="#F1F1F1" height="73.1094" rx="2.5" ry="2.5" style="stroke:#181818;stroke-width:0.5;" width="192.0723" x="582.96" y="380.21"/><ellipse cx="620.1339" cy="400.5205" fill="#EB937F" rx="11" ry="11" style="stroke:#181818;stroke-width:1;"/><path d="M623.7482,407.0205 L616.0285,407.0205 L616.0285,394.6275 L623.7482,394.6275 L623.7482,396.7857 L618.4772,396.7857 L618.4772,399.4585 L623.2501,399.4585 L623.2501,401.6167 L618.4772,401.6167 L618.4772,404.8623 L623.7482,404.8623 Z " fill="#000000"/><text fill="#000000" font-family="sans-serif" font-size="12" font-style="italic" lengthAdjust="spacing" textLength="45.3574" x="671.7812" y="396.8116">&#171;enum&#187;</text><text fill="#000000" font-family="sans-serif" font-size="14" lengthAdjust="spacing" textLength="110.7969" x="639.0615" y="412.878">TranscriberError</text><line style="stroke:#181818;stroke-width:0.5;" x1="583.96" x2="774.0323" y1="420.8311" y2="420.8311"/><g data-visibility-modifier="PUBLIC_FIELD"><ellipse cx="593.96" cy="434.5752" fill="none" rx="3" ry="3" style="stroke:#038048;stroke-width:1;"/></g><text fill="#000000" font-family="sans-serif" font-size="14" lengthAdjust="spacing" textLength="166.0723" x="602.96" y="438.3662">errorDescription: String?</text><line style="stroke:#181818;stroke-width:0.5;" x1="583.96" x2="774.0323" y1="445.3194" y2="445.3194"/></g><!--link WhisperKitRecorder to AudioRecording--><g class="link" data-entity-1="ent0008" data-entity-2="ent0003" data-link-type="extension" data-source-line="108" id="lnk16"><path codeLine="108" d="M1121.6,238.2 C1141.69,254.78 1164.7,270 1189,278.99 C1295.45,318.37 3125.62,256.4 3232,295.99 C3269.03,309.77 3290.3522,325.1722 3315.6822,350.7422" fill="none" id="WhisperKitRecorder-to-AudioRecording" style="stroke:#181818;stroke-width:1;stroke-dasharray:7,7;"/><polygon fill="none" points="3328.35,363.53,3319.9448,346.5196,3311.4196,354.9648,3328.35,363.53" style="stroke:#181818;stroke-width:1;"/></g><!--link ContextDetector to ContextDetecting--><g class="link" data-entity-1="ent0009" data-entity-2="ent0004" data-link-type="extension" data-source-line="109" id="lnk17"><path codeLine="109" d="M1460.04,238.09 C1485.49,254.78 1514.05,270.09 1543,278.99 C1647.67,311.17 3410.99,258.84 3514,295.99 C3560.45,312.74 3590.5761,337.9082 3617.7861,366.6982" fill="none" id="ContextDetector-to-ContextDetecting" style="stroke:#181818;stroke-width:1;stroke-dasharray:7,7;"/><polygon fill="none" points="3630.15,379.78,3622.1467,362.5769,3613.4255,370.8195,3630.15,379.78" style="stroke:#181818;stroke-width:1;"/></g><!--link OllamaFormatter to Formatting--><g class="link" data-entity-1="ent0010" data-entity-2="ent0005" data-link-type="extension" data-source-line="110" id="lnk18"><path codeLine="110" d="M432.14,273.94 C438.09,275.79 444.06,277.48 450,278.99 C549.96,304.29 2205.65,272.29 2306,295.99 C2344.71,305.13 2368.2001,313.3031 2404.0501,330.7231" fill="none" id="OllamaFormatter-to-Formatting" style="stroke:#181818;stroke-width:1;stroke-dasharray:7,7;"/><polygon fill="none" points="2420.24,338.59,2406.6724,325.3265,2401.4278,336.1197,2420.24,338.59" style="stroke:#181818;stroke-width:1;"/></g><!--link WhisperKitTranscriber to Transcribing--><g class="link" data-entity-1="ent0011" data-entity-2="ent0006" data-link-type="extension" data-source-line="111" id="lnk19"><path codeLine="111" d="M787.28,229.89 C824.14,249.71 866.54,268.73 908,278.99 C1109.17,328.74 2571.94,245.8 2773,295.99 C2826.73,309.4 2866.4772,328.3223 2909.3272,353.9823" fill="none" id="WhisperKitTranscriber-to-Transcribing" style="stroke:#181818;stroke-width:1;stroke-dasharray:7,7;"/><polygon fill="none" points="2924.77,363.23,2912.4097,348.8347,2906.2446,359.1299,2924.77,363.23" style="stroke:#181818;stroke-width:1;"/></g><!--reverse link OllamaFormatter to OllamaError--><g class="link" data-entity-1="ent0010" data-entity-2="ent0014" data-link-type="composition" data-source-line="114" id="lnk20"><path codeLine="114" d="M227,291.43 C227,327.94 227,353.44 227,379.85" fill="none" id="OllamaFormatter-backto-OllamaError" style="stroke:#181818;stroke-width:1;"/><polygon fill="#181818" points="227,279.43,223,285.43,227,291.43,231,285.43,227,279.43" style="stroke:#181818;stroke-width:1;"/></g><!--reverse link WhisperKitTranscriber to TranscriberError--><g class="link" data-entity-1="ent0011" data-entity-2="ent0015" data-link-type="composition" data-source-line="115" id="lnk21"><path codeLine="115" d="M679,241.94 C679,290.27 679,340.94 679,379.74" fill="none" id="WhisperKitTranscriber-backto-TranscriberError" style="stroke:#181818;stroke-width:1;"/><polygon fill="#181818" points="679,229.94,675,235.94,679,241.94,683,235.94,679,229.94" style="stroke:#181818;stroke-width:1;"/></g><?plantuml-src xLVTRjis5BxtK_0koWfxGGRiGWWS97RI16lMm4hNYw4OQF7O8agH6ad5IRiCUuWzOP-aXvHaKxBij1rsCM2wC2poEuVdz-FH0PbIIubHfKuX9ZCeLCuVI9IglD1W331Y-59IM-BRuU209Aag47YhbLMf4eQy80deUvw2mTsN845J2omcnqV7FmwFVXWU7mq6LXN4AZ9NrggSCAuXjLp9mK3I74n1KmWKVXmGVBYqe1TkvwnaNCqWLPfnkIGd9qKD7Ozhh7jU46EfjcjST4YeUPGfiPbMAzF2gM8RDXoJNo-5elPT0ANkw5Tm3o8cVjFlFGqw5auK_dsmKx3EhtqsCW-fyNWsddgfT4wRfNxz5MI_veN7H5PJQLBD2nVVEAsqneBAPKcN4FiJpvp3YTL0yq31YkgyB9fu11iPK66pIGRf-p1Qvqg90CND36YQqRc0FQYY5E96CH2HotnCq0hqQcFLdKiMhcnPjm2RPbxIj59MANZN7xUxEXZp_NK35ltEdUwOlCsuAK3xatPNq8etrdoLN9ESEKI-iiAyX2BEiximaRLxJs73D5rN-v8AQanZna-yRWJGwFU2IoegGClr8S68e0QZT5nrsMtp7c1oBdbUvjCI-zhL5BdZELox6DzJ4U1qqrA9wyFOyGgSFjjB_qBhrcLG1QJLcif5mrXTfhOJY8zeWUNf4u6SSd5UIYRWcXaiKB0dLOsD--1pPo3eBnVm-iyOSznwYpqD6YFwSpA3PIceldZmfDjal4_sBPTChUwu5P2KS-DFmcDRZV0LN5CTiTeeDT72bKF1sM_sS5UBLR5zBGJDQKrEi3EsSshWpUnLJF0dM3QLetuvsNAwRglgxC2fTJ0OB6WfxCqEtFzqs4I_v8BDuFSIZ8r6ev5NZY6lbxQpkg6GDNq-moAhjKGSI9_sbJ1McSHEPUTO4-s2-2_nSCWlWXTpHJMxeH8LF4Etr5ZmQDVpj-ktiExfmnL7cjEF2V-08KAYRV4rt7DLcciBULCj8STcbMWl7U3SzXZvyc_AhBDv9fatgGtggLeaEnKTRiVYIjdtyDW48hnYbQnOkxuQeegDVb6S7PxsmbIn3pNb9lL1x8SCIUOjcMIAkw7sAdZhNZfHduFkceasuVcJPDJn-yKzIAIKHvn_mVsjwEEDpBt7x6JoqYF6BKkyvANy9h4PNsRsjQ-yRv9FgZ4xmG7-Y-NhZ88iyvhWBxJs5wTRwenEuBQci67OLas6gW8k-GVwKEF1-ai1YrPwcfUOrcOQ6lLCGAFH7-FDzyMe_JsnaUoE2Xsnxf2_4UpUWnt1pVJUPsL8iXt1S7nrZa_mcqmPxW93FltrDv78ty2-Hqh5hpINNxFRfk-6GzBPz7bupgIMN3U9Wyy0?></g></svg>